<svg width="14" height="12" viewBox="0 0 14 12" fill="none" xmlns="http://www.w3.org/2000/svg">
<path d="M8.07692 0.923077C8.07692 0.4125 7.59567 0 7 0C6.40433 0 5.92308 0.4125 5.92308 0.923077V5.07692H1.07692C0.48125 5.07692 0 5.48942 0 6C0 6.51058 0.48125 6.92308 1.07692 6.92308H5.92308V11.0769C5.92308 11.5875 6.40433 12 7 12C7.59567 12 8.07692 11.5875 8.07692 11.0769V6.92308H12.9231C13.5188 6.92308 14 6.51058 14 6C14 5.48942 13.5188 5.07692 12.9231 5.07692H8.07692V0.923077Z" fill="black"/>
</svg>
