<svg width="83" height="83" viewBox="0 0 83 83" fill="none" xmlns="http://www.w3.org/2000/svg">
<path d="M24.1705 10.5047L22.4846 15.5625H10.375C4.65254 15.5625 0 20.215 0 25.9375V67.4375C0 73.16 4.65254 77.8125 10.375 77.8125H72.625C78.3475 77.8125 83 73.16 83 67.4375V25.9375C83 20.215 78.3475 15.5625 72.625 15.5625H60.5154L58.8295 10.5047C57.7758 7.32734 54.8092 5.1875 51.4535 5.1875H31.5465C28.1908 5.1875 25.2242 7.32734 24.1705 10.5047ZM41.5 31.125C45.6274 31.125 49.5858 32.7646 52.5044 35.6832C55.4229 38.6017 57.0625 42.5601 57.0625 46.6875C57.0625 50.8149 55.4229 54.7733 52.5044 57.6919C49.5858 60.6104 45.6274 62.25 41.5 62.25C37.3726 62.25 33.4142 60.6104 30.4957 57.6919C27.5771 54.7733 25.9375 50.8149 25.9375 46.6875C25.9375 42.5601 27.5771 38.6017 30.4957 35.6832C33.4142 32.7646 37.3726 31.125 41.5 31.125Z" fill="black"/>
</svg>
