<svg width="13" height="13" viewBox="0 0 13 13" fill="none" xmlns="http://www.w3.org/2000/svg">
<g clip-path="url(#clip0_159_11)">
<path d="M11.9742 0.550952C11.4182 -0.00510255 10.5193 -0.00510255 9.96328 0.550952L9.19902 1.31267L11.6848 3.79841L12.449 3.03416C13.0051 2.4781 13.0051 1.57927 12.449 1.02322L11.9742 0.550952ZM4.37734 6.13689C4.22246 6.29177 4.10312 6.4822 4.03457 6.69294L3.28301 8.94763C3.20938 9.16599 3.26777 9.4072 3.43027 9.57224C3.59277 9.73728 3.83398 9.79314 4.05488 9.71951L6.30957 8.96794C6.51777 8.89939 6.7082 8.78005 6.86562 8.62517L11.1135 4.37478L8.6252 1.8865L4.37734 6.13689ZM2.4375 1.62498C1.0918 1.62498 0 2.71677 0 4.06248V10.5625C0 11.9082 1.0918 13 2.4375 13H8.9375C10.2832 13 11.375 11.9082 11.375 10.5625V8.12498C11.375 7.67556 11.0119 7.31248 10.5625 7.31248C10.1131 7.31248 9.75 7.67556 9.75 8.12498V10.5625C9.75 11.0119 9.38691 11.375 8.9375 11.375H2.4375C1.98809 11.375 1.625 11.0119 1.625 10.5625V4.06248C1.625 3.61306 1.98809 3.24998 2.4375 3.24998H4.875C5.32441 3.24998 5.6875 2.88689 5.6875 2.43748C5.6875 1.98806 5.32441 1.62498 4.875 1.62498H2.4375Z" fill="white"/>
</g>
<defs>
<clipPath id="clip0_159_11">
<rect width="13" height="13" fill="white"/>
</clipPath>
</defs>
</svg>
