<svg width="16" height="17" viewBox="0 0 16 17" fill="none" xmlns="http://www.w3.org/2000/svg">
<path d="M9.14284 2.65625C9.14284 2.06855 8.63212 1.59375 7.99998 1.59375C7.36784 1.59375 6.85713 2.06855 6.85713 2.65625V7.4375H1.71427C1.08213 7.4375 0.571411 7.9123 0.571411 8.5C0.571411 9.0877 1.08213 9.5625 1.71427 9.5625H6.85713V14.3438C6.85713 14.9314 7.36784 15.4062 7.99998 15.4062C8.63212 15.4062 9.14284 14.9314 9.14284 14.3438V9.5625H14.2857C14.9178 9.5625 15.4286 9.0877 15.4286 8.5C15.4286 7.9123 14.9178 7.4375 14.2857 7.4375H9.14284V2.65625Z" fill="white"/>
</svg>
