<svg width="31" height="31" viewBox="0 0 31 31" fill="none" xmlns="http://www.w3.org/2000/svg">
<g clip-path="url(#clip0_6_327)">
<path d="M7.75 0C5.6127 0 3.875 1.7377 3.875 3.875V9.6875H7.75V3.875H21.476L23.25 5.64902V9.6875H27.125V5.64902C27.125 4.61973 26.7193 3.63281 25.9928 2.90625L24.2188 1.13223C23.4922 0.405664 22.5053 0 21.476 0H7.75ZM23.25 21.3125V23.25V27.125H7.75V23.25V22.2812V21.3125H23.25ZM27.125 23.25H29.0625C30.1342 23.25 31 22.3842 31 21.3125V15.5C31 13.3627 29.2623 11.625 27.125 11.625H3.875C1.7377 11.625 0 13.3627 0 15.5V21.3125C0 22.3842 0.86582 23.25 1.9375 23.25H3.875V27.125C3.875 29.2623 5.6127 31 7.75 31H23.25C25.3873 31 27.125 29.2623 27.125 27.125V23.25ZM26.1562 15.0156C26.5416 15.0156 26.9112 15.1687 27.1838 15.4412C27.4563 15.7137 27.6094 16.0834 27.6094 16.4688C27.6094 16.8541 27.4563 17.2237 27.1838 17.4963C26.9112 17.7688 26.5416 17.9219 26.1562 17.9219C25.7709 17.9219 25.4013 17.7688 25.1287 17.4963C24.8562 17.2237 24.7031 16.8541 24.7031 16.4688C24.7031 16.0834 24.8562 15.7137 25.1287 15.4412C25.4013 15.1687 25.7709 15.0156 26.1562 15.0156Z" fill="black"/>
</g>
<defs>
<clipPath id="clip0_6_327">
<rect width="31" height="31" fill="white"/>
</clipPath>
</defs>
</svg>
