<svg width="23" height="20" viewBox="0 0 23 20" fill="none" xmlns="http://www.w3.org/2000/svg">
<g clip-path="url(#clip0_161_64)">
<path d="M0 0.9375C0 0.417969 0.427257 0 0.958333 0H2.77517C3.65365 0 4.43229 0.5 4.79566 1.25H21.2071C22.2573 1.25 23.024 2.22656 22.7484 3.21875L21.1113 9.16797C20.7719 10.3945 19.6339 11.25 18.3361 11.25H6.81615L7.03177 12.3633C7.11962 12.8047 7.51493 13.125 7.97413 13.125H19.4861C20.0172 13.125 20.4444 13.543 20.4444 14.0625C20.4444 14.582 20.0172 15 19.4861 15H7.97413C6.59253 15 5.4066 14.0391 5.15104 12.7148L3.09062 2.12891C3.06267 1.98047 2.9309 1.875 2.77517 1.875H0.958333C0.427257 1.875 0 1.45703 0 0.9375ZM5.11111 18.125C5.11111 17.8788 5.16069 17.635 5.25701 17.4075C5.35333 17.18 5.49451 16.9733 5.67249 16.7992C5.85047 16.6251 6.06176 16.487 6.2943 16.3927C6.52684 16.2985 6.77608 16.25 7.02778 16.25C7.27948 16.25 7.52871 16.2985 7.76125 16.3927C7.99379 16.487 8.20509 16.6251 8.38307 16.7992C8.56104 16.9733 8.70222 17.18 8.79855 17.4075C8.89487 17.635 8.94444 17.8788 8.94444 18.125C8.94444 18.3712 8.89487 18.615 8.79855 18.8425C8.70222 19.07 8.56104 19.2767 8.38307 19.4508C8.20509 19.6249 7.99379 19.763 7.76125 19.8573C7.52871 19.9515 7.27948 20 7.02778 20C6.77608 20 6.52684 19.9515 6.2943 19.8573C6.06176 19.763 5.85047 19.6249 5.67249 19.4508C5.49451 19.2767 5.35333 19.07 5.25701 18.8425C5.16069 18.615 5.11111 18.3712 5.11111 18.125ZM18.5278 16.25C19.0361 16.25 19.5236 16.4475 19.8831 16.7992C20.2425 17.1508 20.4444 17.6277 20.4444 18.125C20.4444 18.6223 20.2425 19.0992 19.8831 19.4508C19.5236 19.8025 19.0361 20 18.5278 20C18.0194 20 17.5319 19.8025 17.1725 19.4508C16.813 19.0992 16.6111 18.6223 16.6111 18.125C16.6111 17.6277 16.813 17.1508 17.1725 16.7992C17.5319 16.4475 18.0194 16.25 18.5278 16.25Z" fill="white"/>
</g>
<defs>
<clipPath id="clip0_161_64">
<rect width="23" height="20" fill="white"/>
</clipPath>
</defs>
</svg>
