<svg width="26" height="28" viewBox="0 0 26 28" fill="none" xmlns="http://www.w3.org/2000/svg">
<g clip-path="url(#clip0_233_48)">
<path d="M13 14C11.0298 14 9.14034 13.2625 7.74721 11.9497C6.35408 10.637 5.57143 8.85652 5.57143 7C5.57143 5.14348 6.35408 3.36301 7.74721 2.05025C9.14034 0.737498 11.0298 0 13 0C14.9702 0 16.8597 0.737498 18.2528 2.05025C19.6459 3.36301 20.4286 5.14348 20.4286 7C20.4286 8.85652 19.6459 10.637 18.2528 11.9497C16.8597 13.2625 14.9702 14 13 14ZM15.6522 16.625C21.3688 16.625 26 20.9891 26 26.3758C26 27.2727 25.2281 28 24.2763 28H1.72366C0.771877 28 0 27.2727 0 26.3758C0 20.9891 4.63125 16.625 10.3478 16.625H15.6522Z" fill="black"/>
</g>
<defs>
<clipPath id="clip0_233_48">
<rect width="26" height="28" fill="white" transform="matrix(-1 0 0 1 26 0)"/>
</clipPath>
</defs>
</svg>
