<svg width="25" height="19" viewBox="0 0 25 19" fill="none" xmlns="http://www.w3.org/2000/svg">
<path d="M7.48906 1.39107L7.00156 2.71429H3.5C1.84531 2.71429 0.5 3.93147 0.5 5.42857V16.2857C0.5 17.7828 1.84531 19 3.5 19H21.5C23.1547 19 24.5 17.7828 24.5 16.2857V5.42857C24.5 3.93147 23.1547 2.71429 21.5 2.71429H17.9984L17.5109 1.39107C17.2062 0.559822 16.3484 0 15.3781 0H9.62188C8.65156 0 7.79375 0.559822 7.48906 1.39107ZM12.5 6.78571C13.6935 6.78571 14.8381 7.21467 15.682 7.97821C16.5259 8.74175 17 9.77733 17 10.8571C17 11.937 16.5259 12.9725 15.682 13.7361C14.8381 14.4996 13.6935 14.9286 12.5 14.9286C11.3065 14.9286 10.1619 14.4996 9.31802 13.7361C8.47411 12.9725 8 11.937 8 10.8571C8 9.77733 8.47411 8.74175 9.31802 7.97821C10.1619 7.21467 11.3065 6.78571 12.5 6.78571Z" fill="black"/>
</svg>
