<svg width="19" height="22" viewBox="0 0 19 22" fill="none" xmlns="http://www.w3.org/2000/svg">
<path d="M5.73393 0.760547L5.42857 1.375H1.35714C0.606473 1.375 0 1.98945 0 2.75C0 3.51055 0.606473 4.125 1.35714 4.125H17.6429C18.3935 4.125 19 3.51055 19 2.75C19 1.98945 18.3935 1.375 17.6429 1.375H13.5714L13.2661 0.760547C13.0371 0.292188 12.5663 0 12.0531 0H6.94688C6.43371 0 5.96295 0.292188 5.73393 0.760547ZM17.6429 5.5H1.35714L2.25625 20.0664C2.32411 21.1535 3.21473 22 4.28772 22H14.7123C15.7853 22 16.6759 21.1535 16.7437 20.0664L17.6429 5.5Z" fill="black"/>
</svg>
