<svg width="31" height="32" viewBox="0 0 31 32" fill="none" xmlns="http://www.w3.org/2000/svg">
<ellipse cx="15.5" cy="16" rx="15.5" ry="16" fill="#FCD331"/>
<path d="M8 9.96875V15.5166C8 16.1475 8.25424 16.7523 8.7096 17.1977L15.3882 23.7289C16.3368 24.6566 17.8737 24.6566 18.8223 23.7289L23.8882 18.7748C24.8368 17.8471 24.8368 16.3441 23.8882 15.4164L17.2096 8.88516C16.7542 8.43984 16.1357 8.19121 15.4906 8.19121L9.82143 8.1875C8.81585 8.1875 8 8.98535 8 9.96875ZM12.25 11.1562C12.572 11.1562 12.8809 11.2814 13.1086 11.5041C13.3364 11.7268 13.4643 12.0288 13.4643 12.3437C13.4643 12.6587 13.3364 12.9607 13.1086 13.1834C12.8809 13.4061 12.572 13.5312 12.25 13.5312C11.928 13.5312 11.6191 13.4061 11.3914 13.1834C11.1636 12.9607 11.0357 12.6587 11.0357 12.3437C11.0357 12.0288 11.1636 11.7268 11.3914 11.5041C11.6191 11.2814 11.928 11.1562 12.25 11.1562Z" fill="white"/>
</svg>
