<svg width="10" height="10" viewBox="0 0 10 10" fill="none" xmlns="http://www.w3.org/2000/svg">
<path d="M6.875 6.25C8.60156 6.25 10 4.85156 10 3.125C10 2.82617 9.95703 2.53711 9.87891 2.26172C9.81836 2.05078 9.55859 2.00391 9.4043 2.1582L7.9043 3.6582C7.8457 3.7168 7.76562 3.75 7.68359 3.75H6.5625C6.39062 3.75 6.25 3.60938 6.25 3.4375V2.31641C6.25 2.23438 6.2832 2.1543 6.3418 2.0957L7.8418 0.595703C7.99609 0.441406 7.94727 0.181641 7.73828 0.121094C7.46289 0.0429688 7.17383 0 6.875 0C5.14844 0 3.75 1.39844 3.75 3.125C3.75 3.49805 3.81641 3.85742 3.93555 4.18945L0.388672 7.73633C0.140625 7.98438 0 8.32227 0 8.67383C0 9.40625 0.59375 10 1.32617 10C1.67773 10 2.01562 9.85938 2.26367 9.61133L5.81055 6.06445C6.14258 6.18555 6.50195 6.25 6.875 6.25ZM1.5625 7.96875C1.68682 7.96875 1.80605 8.01814 1.89396 8.10604C1.98186 8.19395 2.03125 8.31318 2.03125 8.4375C2.03125 8.56182 1.98186 8.68105 1.89396 8.76896C1.80605 8.85686 1.68682 8.90625 1.5625 8.90625C1.43818 8.90625 1.31895 8.85686 1.23104 8.76896C1.14314 8.68105 1.09375 8.56182 1.09375 8.4375C1.09375 8.31318 1.14314 8.19395 1.23104 8.10604C1.31895 8.01814 1.43818 7.96875 1.5625 7.96875Z" fill="black"/>
</svg>
